<?xml version="1.0" standalone="no"?>
<!DOCTYPE svg PUBLIC "-//W3C//DTD SVG 20010904//EN"
 "http://www.w3.org/TR/2001/REC-SVG-20010904/DTD/svg10.dtd">
<svg version="1.0" xmlns="http://www.w3.org/2000/svg"
 width="260.000000pt" height="260.000000pt" viewBox="0 0 260.000000 260.000000"
 preserveAspectRatio="xMidYMid meet">
<metadata>
Created by potrace 1.14, written by Peter Selinger 2001-2017
</metadata>
<g transform="translate(0.000000,260.000000) scale(0.100000,-0.100000)"
fill="#000000" stroke="none">
<path d="M2163 2082 c-13 -2 -23 -8 -23 -13 0 -6 -4 -7 -10 -4 -5 3 -10 2 -10
-4 0 -6 -38 -64 -85 -130 -47 -66 -85 -124 -85 -130 0 -6 -4 -11 -8 -11 -8 0
-72 -85 -72 -96 0 -3 -6 -12 -12 -19 -27 -30 -38 -44 -38 -50 0 -3 -5 -11 -10
-18 -10 -11 -94 -129 -122 -171 -7 -10 -19 -24 -25 -32 -7 -7 -13 -15 -13 -19
0 -6 -50 -76 -61 -85 -3 -3 -14 -20 -23 -37 -9 -18 -22 -33 -28 -33 -6 0 -9
-3 -5 -6 3 -4 1 -12 -6 -20 -29 -33 -37 -44 -37 -54 0 -5 -4 -10 -10 -10 -5 0
-10 -6 -10 -14 0 -8 -4 -16 -8 -18 -4 -1 -32 -38 -61 -80 -66 -96 -79 -108
-95 -85 -108 159 -260 372 -268 375 -4 2 -8 8 -8 14 0 6 -14 27 -30 48 -17 21
-30 42 -30 48 0 6 -4 12 -8 14 -5 2 -39 48 -77 103 -37 55 -76 109 -87 121
-10 11 -18 24 -18 28 0 4 -6 14 -13 21 -29 33 -37 45 -37 54 0 5 -3 11 -8 13
-4 2 -27 32 -52 68 -114 169 -149 214 -168 221 -32 12 -475 5 -479 -8 -2 -6 7
-22 21 -36 14 -14 23 -27 20 -30 -2 -2 2 -10 11 -17 8 -7 15 -19 15 -27 0 -8
4 -12 9 -9 5 4 15 -7 23 -24 7 -16 16 -30 20 -30 5 0 8 -7 8 -15 0 -9 7 -18
15 -21 8 -4 15 -10 15 -15 0 -5 21 -39 48 -75 26 -37 46 -71 44 -75 -1 -5 2
-9 8 -9 9 0 67 -81 98 -137 7 -12 17 -23 23 -23 5 0 9 -5 9 -12 0 -6 18 -35
40 -64 22 -29 40 -57 40 -63 0 -5 4 -11 8 -13 13 -5 152 -205 152 -219 0 -4 6
-12 13 -16 6 -4 35 -42 62 -83 28 -41 53 -77 56 -80 3 -3 34 -48 69 -100 36
-52 69 -100 75 -107 5 -7 16 -19 23 -28 7 -8 10 -15 7 -15 -7 0 24 -38 72 -87
23 -24 47 -43 53 -43 5 0 10 -5 10 -12 0 -6 3 -8 7 -5 3 4 16 1 27 -6 24 -15
95 -36 143 -42 18 -2 38 -7 44 -11 8 -5 9 -3 4 7 -7 11 -6 12 7 2 8 -7 17 -10
21 -7 3 3 16 7 29 8 65 8 108 19 108 27 0 6 4 8 9 5 10 -6 90 45 140 89 29 25
332 475 835 1238 65 98 116 184 113 190 -3 7 -22 11 -48 10 -24 -2 -69 -3 -99
-3 -101 0 -123 -1 -131 -6 -4 -2 -10 0 -14 5 -3 7 -15 7 -29 1 -13 -5 -27 -6
-30 -2 -8 7 -32 9 -63 4z"/>
</g>
</svg>
