<svg width="697" height="167" viewBox="0 0 697 167" fill="none" xmlns="http://www.w3.org/2000/svg">
<path d="M2.53325 2.80217L2.53579 2.8058C2.74232 3.10236 3.03187 3.51793 3.41788 4.07193C6.55292 8.57144 16.0501 22.2021 39.104 55.3635L39.1043 55.364C41.7434 59.1691 45.103 63.9869 47.9956 68.135C49.6562 70.5163 51.1628 72.6769 52.2909 74.2986C53.3384 75.7972 54.5946 77.6011 55.9204 79.5047C58.5715 83.3115 61.5005 87.5173 63.5932 90.4791L63.5956 90.4826C68.6692 97.7952 73.7424 105.096 79.6728 113.629C85.7696 122.403 92.7723 132.48 101.613 145.214L101.202 145.499L101.613 145.214C119.943 171.621 122.3 174.517 128.818 178.799L128.82 178.8C137.625 184.638 145.263 186.98 156.482 187.364L156.483 187.364C163.602 187.628 168.949 187.17 173.999 185.563C179.051 183.957 183.843 181.19 189.837 176.785C190.092 176.598 190.337 176.418 190.574 176.244C192.361 174.932 193.703 173.947 195.27 172.42C197.047 170.687 199.119 168.25 202.421 163.851C208.716 155.462 219.428 140.014 241.006 108.896C242.064 107.37 243.149 105.805 244.261 104.202L244.261 104.201L250.107 95.7959L251.005 94.504L251.017 96.0775L251.307 133.708C251.597 169.637 251.648 171.494 252.599 175.773C253.177 178.277 254.132 181.368 254.781 182.664L254.783 182.67C255.475 184.1 256.824 185.855 258.351 187.424C259.88 188.995 261.535 190.324 262.811 190.939L262.813 190.94C263.044 191.053 263.238 191.142 263.58 191.222C263.935 191.306 264.46 191.383 265.345 191.45C267.116 191.584 270.25 191.675 276.191 191.735C288.065 191.856 311.091 191.856 356.695 191.856H448.315V172.55V153.245H368.143H287.471H286.971V152.745V97.917C286.971 73.0649 286.996 59.3175 287.104 51.6505C287.159 47.8193 287.234 45.4949 287.34 44.0588C287.392 43.3415 287.453 42.8313 287.526 42.4593C287.599 42.09 287.69 41.8218 287.823 41.6131L287.823 41.612L288.596 40.4044L288.744 40.1739H289.017H380.268H471.019V20.6268V1.07962H409.832C375.871 1.07962 327.467 0.934692 302.202 0.789764L256.575 0.501587L250.252 9.65555L250.251 9.65733C244.357 18.1116 233.826 33.1358 177.308 113.759L176.898 113.472L177.307 113.759L159.289 139.458L158.884 140.035L158.474 139.462L155.285 135.018L155.279 135.009C154.521 133.904 152.626 131.216 150.12 127.661C147.043 123.295 143.044 117.621 139.1 111.972C136.286 107.968 132.127 102.058 127.369 95.2965C119.959 84.7659 111.096 72.1698 103.595 61.4915C91.228 43.9561 77.3158 24.1506 72.6781 17.5322L72.6772 17.5309C68.0449 10.872 63.3649 4.31017 62.3475 2.90514C62.3467 2.90401 62.3459 2.90288 62.3451 2.90175L60.6161 0.596558H30.433H0.96795L2.53325 2.80217Z" stroke="white" stroke-opacity="0.53"/>
<path d="M538.166 191.854L510.554 191.759L510.553 191.759L482.887 191.617L482.744 133.76L482.744 133.759L482.648 75.9547H599.29H716.433H716.933V75.4547V58.0644V40.6741V40.1745L716.434 40.1741L599.436 40.0775L482.885 39.9332L482.744 20.7212L482.744 20.72L482.65 1.56296H615.618C680.833 1.56296 714.234 1.56296 731.773 1.67767C749.35 1.79263 750.947 2.02563 752.634 2.46466L752.634 2.46477C757.773 3.79698 760.879 5.54231 764.239 8.94971C767.453 12.2115 769.927 16.7202 771.358 21.9656C771.728 23.3533 771.945 24.8015 772.065 29.769C772.186 34.7371 772.21 43.1835 772.21 58.5475V60.2089C772.211 77.5369 772.211 86.1802 771.855 91.2278C771.672 93.8234 771.397 95.4396 770.989 96.783C770.601 98.0581 770.09 99.1035 769.387 100.541L769.266 100.789L769.263 100.794C768.621 102.147 766.855 104.443 764.942 106.567C763.992 107.622 763.02 108.619 762.155 109.418C761.277 110.229 760.545 110.802 760.068 111.046L760.06 111.05C759.677 111.254 759.314 111.487 759.04 111.701C758.904 111.807 758.777 111.918 758.68 112.027C758.631 112.082 758.579 112.147 758.537 112.22C758.5 112.286 758.443 112.404 758.443 112.554C758.443 112.676 758.484 112.771 758.507 112.819C758.534 112.873 758.566 112.92 758.593 112.957C758.648 113.03 758.717 113.103 758.787 113.173C758.931 113.313 759.127 113.481 759.356 113.663C759.816 114.03 760.443 114.485 761.126 114.948M538.166 191.854L761.406 114.534M538.166 191.854V153.711V115.066V114.566H538.666H627.549H716.433H716.932L716.933 115.065L717.03 153.564L538.166 191.854ZM761.126 114.948L761.406 114.534M761.126 114.948C761.125 114.948 761.125 114.948 761.124 114.947L761.406 114.534M761.126 114.948C765.892 118.205 769.358 123.267 771.313 129.94L771.313 129.941C771.679 131.178 771.897 132.607 772.035 137.115C772.174 141.618 772.234 149.146 772.307 162.554V162.554L772.497 191.854M761.406 114.534C766.285 117.868 769.812 123.036 771.792 129.799C772.565 132.408 772.662 135.741 772.807 162.551L772.997 191.856L772.497 191.854M772.497 191.854L744.84 191.759M772.497 191.854L772.5 192.354L744.837 192.259M744.84 191.759L716.53 153.566L716.675 192.114M744.84 191.759L744.837 192.259M744.84 191.759L744.839 191.759M744.837 192.259L716.675 192.114M744.837 192.259L744.839 191.759M716.675 192.114L716.677 191.614L717.173 191.617M716.675 192.114L717.175 192.113L717.173 191.617M717.173 191.617L744.839 191.759M717.173 191.617L717.03 153.565L744.839 191.759" stroke="white" stroke-opacity="0.53"/>
</svg>
