<svg width="26" height="18" viewBox="0 0 26 18" fill="none" xmlns="http://www.w3.org/2000/svg">
<path id="Vector" d="M26 16.7207C26 17.4279 25.4202 18 24.7065 18H14.2935C13.9504 18 13.6214 17.8652 13.3789 17.6253C13.1363 17.3854 13 17.06 13 16.7207C13 16.3814 13.1363 16.056 13.3789 15.8161C13.6214 15.5762 13.9504 15.4414 14.2935 15.4414H24.7065C25.4215 15.4414 26 16.0136 26 16.7207ZM26 9C26 9.70714 25.4202 10.2793 24.7065 10.2793H1.2935C0.950442 10.2793 0.621436 10.1445 0.378857 9.90459C0.136279 9.66468 0 9.33929 0 9C0 8.66071 0.136279 8.33532 0.378857 8.09541C0.621436 7.8555 0.950442 7.72071 1.2935 7.72071H24.7065C25.4215 7.72071 26 8.29414 26 9ZM24.7065 2.55857C25.0496 2.55857 25.3786 2.42379 25.6211 2.18388C25.8637 1.94396 26 1.61857 26 1.27929C26 0.939998 25.8637 0.614606 25.6211 0.374694C25.3786 0.134781 25.0496 1.01116e-08 24.7065 0H9.0935C8.92363 -5.00674e-09 8.75543 0.0330897 8.5985 0.0973798C8.44156 0.16167 8.29897 0.255901 8.17886 0.374694C8.05874 0.493487 7.96347 0.634514 7.89846 0.789724C7.83346 0.944935 7.8 1.11129 7.8 1.27929C7.8 1.44728 7.83346 1.61364 7.89846 1.76885C7.96347 1.92406 8.05874 2.06508 8.17886 2.18388C8.29897 2.30267 8.44156 2.3969 8.5985 2.46119C8.75543 2.52548 8.92363 2.55857 9.0935 2.55857H24.7065Z" fill="#FFF"/>
</svg>
