<svg width="20" height="26" viewBox="0 0 20 26" fill="none" xmlns="http://www.w3.org/2000/svg">
<path d="M9.54753 12.2143C8.64318 12.2143 7.77588 11.8756 7.13641 11.2728C6.49695 10.67 6.1377 9.85248 6.1377 9C6.1377 8.14752 6.49695 7.32995 7.13641 6.72716C7.77588 6.12436 8.64318 5.78571 9.54753 5.78571C10.4519 5.78571 11.3192 6.12436 11.9586 6.72716C12.5981 7.32995 12.9574 8.14752 12.9574 9C12.9574 9.42211 12.8692 9.84008 12.6978 10.2301C12.5264 10.62 12.2753 10.9744 11.9586 11.2728C11.642 11.5713 11.2661 11.8081 10.8524 11.9696C10.4387 12.1311 9.99531 12.2143 9.54753 12.2143ZM9.54753 0C7.01537 0 4.58692 0.948211 2.79641 2.63604C1.0059 4.32387 0 6.61305 0 9C0 15.75 9.54753 25.7143 9.54753 25.7143C9.54753 25.7143 19.0951 15.75 19.0951 9C19.0951 6.61305 18.0892 4.32387 16.2986 2.63604C14.5081 0.948211 12.0797 0 9.54753 0Z" fill="white"/>
</svg>
