<svg width="34" height="34" viewBox="0 0 34 34" fill="none" xmlns="http://www.w3.org/2000/svg">
<path d="M28.75 5.18335C27.222 3.63989 25.402 2.41613 23.3961 1.58344C21.3902 0.750742 19.2385 0.325785 17.0667 0.333351C7.96666 0.333351 0.549998 7.75002 0.549998 16.85C0.549998 19.7667 1.31666 22.6 2.75 25.1L0.416664 33.6667L9.16666 31.3667C11.5833 32.6833 14.3 33.3834 17.0667 33.3834C26.1667 33.3834 33.5833 25.9667 33.5833 16.8667C33.5833 12.45 31.8667 8.30002 28.75 5.18335ZM17.0667 30.5833C14.6 30.5833 12.1833 29.9167 10.0667 28.6667L9.56666 28.3667L4.36666 29.7333L5.75 24.6667L5.41666 24.15C4.04624 21.9616 3.31856 19.4321 3.31666 16.85C3.31666 9.28335 9.48333 3.11668 17.05 3.11668C20.7167 3.11668 24.1667 4.55002 26.75 7.15002C28.0291 8.42329 29.0428 9.93779 29.7323 11.6057C30.4218 13.2737 30.7734 15.0619 30.7667 16.8667C30.8 24.4333 24.6333 30.5833 17.0667 30.5833ZM24.6 20.3167C24.1833 20.1167 22.15 19.1167 21.7833 18.9667C21.4 18.8334 21.1333 18.7667 20.85 19.1667C20.5667 19.5834 19.7833 20.5167 19.55 20.7833C19.3167 21.0667 19.0667 21.1 18.65 20.8834C18.2333 20.6833 16.9 20.2334 15.3333 18.8334C14.1 17.7334 13.2833 16.3834 13.0333 15.9667C12.8 15.55 13 15.3334 13.2167 15.1167C13.4 14.9333 13.6333 14.6333 13.8333 14.4C14.0333 14.1667 14.1167 13.9833 14.25 13.7167C14.3833 13.4333 14.3167 13.2 14.2167 13C14.1167 12.8 13.2833 10.7667 12.95 9.93335C12.6167 9.13335 12.2667 9.23335 12.0167 9.21668H11.2167C10.9333 9.21668 10.5 9.31668 10.1167 9.73335C9.75 10.15 8.68333 11.15 8.68333 13.1834C8.68333 15.2167 10.1667 17.1834 10.3667 17.45C10.5667 17.7334 13.2833 21.9 17.4167 23.6833C18.4 24.1167 19.1667 24.3667 19.7667 24.55C20.75 24.8667 21.65 24.8167 22.3667 24.7167C23.1667 24.6 24.8167 23.7167 25.15 22.75C25.5 21.7833 25.5 20.9667 25.3833 20.7833C25.2667 20.6 25.0167 20.5167 24.6 20.3167Z" fill="#33AA20"/>
</svg>
