<svg width="40" height="40" viewBox="0 0 40 40" fill="none" xmlns="http://www.w3.org/2000/svg">
<path d="M36.3667 25.7L32.2 32.9166C31.3833 34.35 29.8667 35.1 28.3333 35H25V38.3333L20.8333 30.8333L25 23.3333V26.6666H29.7L26 20.25L33.2167 16.0833L36.2167 21.2833C37.0833 22.5666 37.2 24.2833 36.3667 25.7ZM15.35 5.09998H23.6833C25.3167 5.09998 26.7333 6.04998 27.4167 7.41664L29.0833 10.3166L31.9667 8.64998L27.5667 16L18.9833 16.15L21.8667 14.4833L19.5167 10.4L15.8333 16.8166L8.6 12.65L11.6 7.44998C12.2833 6.06664 13.7 5.09998 15.35 5.09998ZM8.41667 32.9333L4.25 25.7166C3.43333 24.3 3.55 22.6 4.4 21.3166L6.06667 18.4333L3.18333 16.7666L11.75 16.9L16.1667 24.2666L13.2833 22.6L10.9333 26.6666H18.3333V35H12.3333C11.5525 35.0565 10.7715 34.8928 10.0791 34.5274C9.38672 34.1621 8.81074 33.6098 8.41667 32.9333Z" fill="#A98261"/>
</svg>
