<svg width="59" height="59" viewBox="0 0 59 59" fill="none" xmlns="http://www.w3.org/2000/svg">
<path d="M39.3333 22.125C39.3333 35.2279 19.6667 35.2279 19.6667 22.125H24.5833C24.5833 28.6888 34.4167 28.6888 34.4167 22.125M49.1667 44.25V51.625H9.83333V44.25C9.83333 37.6863 22.9362 34.4167 29.5 34.4167C36.0637 34.4167 49.1667 37.6863 49.1667 44.25ZM44.4958 44.25C44.4958 42.6767 36.8012 39.0875 29.5 39.0875C22.1987 39.0875 14.5042 42.6767 14.5042 44.25V46.9542H44.4958M30.7292 4.91669C31.4175 4.91669 31.9583 5.45752 31.9583 6.14585V13.5209H34.4167V7.37502C36.1564 8.18018 37.6141 9.48966 38.6004 11.1335C39.5867 12.7774 40.0562 14.6798 39.9479 16.5938C39.9479 16.5938 41.6687 16.9379 41.7917 19.6667H17.2083C17.2083 16.9379 19.0521 16.5938 19.0521 16.5938C18.9438 14.6798 19.4133 12.7774 20.3996 11.1335C21.3859 9.48966 22.8435 8.18018 24.5833 7.37502V13.5209H27.0417V6.14585C27.0417 5.45752 27.5825 4.91669 28.2708 4.91669" fill="#7A5B41"/>
</svg>
