<svg width="50" height="50" viewBox="0 0 50 50" fill="none" xmlns="http://www.w3.org/2000/svg">
<path d="M20.8333 4.16663L15.8333 11.25C17.5 10.8333 19.1667 10.4166 20.8333 10.4166C22.5 10.4166 24.1667 10.8333 25.8333 11.25M39.5833 10.4166C37.2708 10.4166 35.4167 12.2708 35.4167 14.5833V28.6666C34.0833 29.8541 33.3333 31.5625 33.3333 33.3333C33.3333 36.7916 36.125 39.5833 39.5833 39.5833C43.0417 39.5833 45.8333 36.7916 45.8333 33.3333C45.8333 31.5625 45.0833 29.8541 43.75 28.6875V14.5833C43.75 12.2708 41.8958 10.4166 39.5833 10.4166ZM39.5833 12.5C40.7292 12.5 41.6667 13.4375 41.6667 14.5833V16.6666H37.5V14.5833C37.5 13.4375 38.4375 12.5 39.5833 12.5ZM11.4583 13.9583L2.70833 14.5833L6.45833 22.5C6.66666 20.8333 7.29166 19.1666 8.125 17.7083C9.16666 16.25 10.2083 15 11.4583 13.9583ZM20.8333 14.5833C15 14.5833 10.4167 19.1666 10.4167 25C10.4167 30.8333 15 35.4166 20.8333 35.4166C26.6667 35.4166 31.25 30.8333 31.25 25C31.25 19.1666 26.6667 14.5833 20.8333 14.5833ZM6.66666 27.5L2.91667 35.4166L11.4583 36.25C10.4167 35.2083 9.16666 33.75 8.33333 32.2916C7.29166 30.8333 6.875 29.1666 6.66666 27.5ZM15.8333 38.75L20.8333 45.8333L25.8333 38.75C24.1667 39.1666 22.5 39.5833 20.8333 39.5833C18.9583 39.5833 17.2917 39.1666 15.8333 38.75Z" fill="#A98261"/>
</svg>
