<svg width="25" height="26" viewBox="0 0 25 26" fill="none" xmlns="http://www.w3.org/2000/svg">
<path d="M7.25 0.0834961H17.75C21.75 0.0834961 25 3.3335 25 7.3335V17.8335C25 19.7563 24.2362 21.6004 22.8765 22.96C21.5169 24.3197 19.6728 25.0835 17.75 25.0835H7.25C3.25 25.0835 0 21.8335 0 17.8335V7.3335C0 5.41068 0.763837 3.56661 2.12348 2.20697C3.48311 0.847333 5.32718 0.0834961 7.25 0.0834961ZM7 2.5835C5.80653 2.5835 4.66193 3.0576 3.81802 3.90152C2.97411 4.74543 2.5 5.89002 2.5 7.0835V18.0835C2.5 20.571 4.5125 22.5835 7 22.5835H18C19.1935 22.5835 20.3381 22.1094 21.182 21.2655C22.0259 20.4216 22.5 19.277 22.5 18.0835V7.0835C22.5 4.596 20.4875 2.5835 18 2.5835H7ZM19.0625 4.4585C19.4769 4.4585 19.8743 4.62312 20.1674 4.91614C20.4604 5.20917 20.625 5.6066 20.625 6.021C20.625 6.4354 20.4604 6.83282 20.1674 7.12585C19.8743 7.41888 19.4769 7.5835 19.0625 7.5835C18.6481 7.5835 18.2507 7.41888 17.9576 7.12585C17.6646 6.83282 17.5 6.4354 17.5 6.021C17.5 5.6066 17.6646 5.20917 17.9576 4.91614C18.2507 4.62312 18.6481 4.4585 19.0625 4.4585ZM12.5 6.3335C14.1576 6.3335 15.7473 6.99198 16.9194 8.16408C18.0915 9.33618 18.75 10.9259 18.75 12.5835C18.75 14.2411 18.0915 15.8308 16.9194 17.0029C15.7473 18.175 14.1576 18.8335 12.5 18.8335C10.8424 18.8335 9.25268 18.175 8.08058 17.0029C6.90848 15.8308 6.25 14.2411 6.25 12.5835C6.25 10.9259 6.90848 9.33618 8.08058 8.16408C9.25268 6.99198 10.8424 6.3335 12.5 6.3335ZM12.5 8.8335C11.5054 8.8335 10.5516 9.22858 9.84835 9.93184C9.14509 10.6351 8.75 11.5889 8.75 12.5835C8.75 13.5781 9.14509 14.5319 9.84835 15.2351C10.5516 15.9384 11.5054 16.3335 12.5 16.3335C13.4946 16.3335 14.4484 15.9384 15.1517 15.2351C15.8549 14.5319 16.25 13.5781 16.25 12.5835C16.25 11.5889 15.8549 10.6351 15.1517 9.93184C14.4484 9.22858 13.4946 8.8335 12.5 8.8335Z" fill="white"/>
</svg>
