<svg width="40" height="40" viewBox="0 0 40 40" fill="none" xmlns="http://www.w3.org/2000/svg">
<path d="M24 3.99999C24 3.76409 23.9375 3.53239 23.8188 3.32855C23.7 3.12471 23.5293 2.95602 23.3241 2.83971C23.1188 2.72339 22.8864 2.66362 22.6505 2.66648C22.4146 2.66934 22.1837 2.73474 21.9813 2.85599L8.96533 10.6613H4C1.78933 10.6613 0 12.448 0 14.6613V25.3333C0 27.544 1.78667 29.3333 4 29.3333H8.96533L21.9787 37.144C22.1811 37.2659 22.4123 37.3319 22.6486 37.3351C22.8848 37.3383 23.1177 37.2787 23.3234 37.1623C23.5291 37.0459 23.7001 36.8769 23.819 36.6727C23.9379 36.4685 24.0003 36.2363 24 36V3.99999ZM35.2213 19.9893L38.9867 23.76L37.1013 25.6453L33.3333 21.8747L29.5627 25.6427L27.6773 23.7573L31.448 19.9893L27.6773 16.2213L29.5627 14.336L33.3333 18.104L37.1067 14.336L38.9893 16.2213L35.2213 19.9893Z" fill="#A98261"/>
</svg>
