<svg xmlns="http://www.w3.org/2000/svg" width="23.8" height="23.8" viewBox="0 0 23.8 23.8">
  <g id="icon-close" transform="translate(-4.5 -4.5)">
    <path id="Caminho_27497" data-name="Caminho 27497" d="M19.009,16.4l9.02,9.02a.922.922,0,0,1,0,1.3l-1.3,1.3a.922.922,0,0,1-1.3,0L16.4,19.009l-9.02,9.02a.922.922,0,0,1-1.3,0l-1.3-1.3a.922.922,0,0,1,0-1.3L13.79,16.4,4.77,7.379a.922.922,0,0,1,0-1.3l1.3-1.3a.922.922,0,0,1,1.3,0l9.02,9.02,9.02-9.02a.922.922,0,0,1,1.3,0l1.3,1.3a.922.922,0,0,1,0,1.3Z" transform="translate(0)" fill="#FFF" fill-rule="evenodd"/>
  </g>
</svg>
