<svg width="40" height="40" viewBox="0 0 40 40" fill="none" xmlns="http://www.w3.org/2000/svg">
<path d="M20 5C21.7681 5 23.4638 5.70238 24.714 6.95262C25.9643 8.20286 26.6667 9.89856 26.6667 11.6667C26.6667 12.8833 26.35 14.0167 25.7667 15H30C31.5833 15 32.9167 16.1167 33.25 17.6C36.6 30.95 36.6667 31.3 36.6667 31.6667C36.6667 32.5507 36.3155 33.3986 35.6904 34.0237C35.0652 34.6488 34.2174 35 33.3333 35H6.66667C5.78261 35 4.93476 34.6488 4.30964 34.0237C3.68452 33.3986 3.33333 32.5507 3.33333 31.6667C3.33333 31.3 3.4 30.95 6.75 17.6C7.08333 16.1167 8.41667 15 10 15H14.2333C13.6383 13.9903 13.3273 12.8386 13.3333 11.6667C13.3333 9.89856 14.0357 8.20286 15.286 6.95262C16.5362 5.70238 18.2319 5 20 5ZM20 8.33333C19.1159 8.33333 18.2681 8.68452 17.643 9.30964C17.0179 9.93476 16.6667 10.7826 16.6667 11.6667C16.6667 12.5507 17.0179 13.3986 17.643 14.0237C18.2681 14.6488 19.1159 15 20 15C20.8841 15 21.7319 14.6488 22.357 14.0237C22.9821 13.3986 23.3333 12.5507 23.3333 11.6667C23.3333 10.7826 22.9821 9.93476 22.357 9.30964C21.7319 8.68452 20.8841 8.33333 20 8.33333ZM10 18.3333V31.6667H13.3333V27.5L15 29.1667V31.6667H18.3333V28.3333L15 25L18.3333 21.6667V18.3333H15V20.8333L13.3333 22.5V18.3333H10ZM25 18.3333C23.15 18.3333 21.6667 19.8167 21.6667 21.6667V28.3333C21.6667 30.1833 23.15 31.6667 25 31.6667H30V23.3333H26.6667V28.3333H25V21.6667H30V18.3333H25Z" fill="#A98261"/>
</svg>
