<svg width="40" height="40" viewBox="0 0 40 40" fill="none" xmlns="http://www.w3.org/2000/svg">
<path fill-rule="evenodd" clip-rule="evenodd" d="M20.185 2.36255C18.5798 3.52102 17.2726 5.04418 16.3712 6.80663C15.4697 8.56909 14.9998 10.5204 15 12.5001V12.5801C15.01 14.0801 15.285 15.5201 15.7775 16.8526C16.1775 17.9226 15.2675 19.1276 14.2525 18.6026C12.3646 17.6249 10.7573 16.1819 9.5825 14.4101C9.0775 13.6501 7.9625 13.5026 7.4625 14.2651C5.81373 16.7752 4.95643 19.7226 5.00158 22.7255C5.04672 25.7284 5.99224 28.6486 7.71572 31.1081C9.43921 33.5676 11.8613 35.4531 14.6684 36.5205C17.4756 37.588 20.5385 37.7882 23.4607 37.0953C26.383 36.4024 29.0299 34.8482 31.0589 32.634C33.0879 30.4198 34.4055 27.6475 34.8412 24.6761C35.2769 21.7046 34.8106 18.6707 33.5026 15.9673C32.1947 13.2638 30.1053 11.0152 27.505 9.51255L27.495 9.49505C24.9851 8.04934 23.0578 5.77372 22.045 3.06005C21.755 2.28505 20.8525 1.88255 20.185 2.36255ZM22.135 17.8051C23.3141 18.1547 24.3891 18.7889 25.2655 19.6517C26.1419 20.5146 26.7927 21.5796 27.1607 22.7531C27.5287 23.9266 27.6025 25.1726 27.3758 26.3813C27.149 27.5901 26.6285 28.7245 25.8602 29.6849C25.0919 30.6452 24.0993 31.4019 22.9698 31.8884C21.8403 32.3749 20.6085 32.5763 19.3828 32.4748C18.1572 32.3734 16.9753 31.9721 15.9412 31.3065C14.907 30.6408 14.0524 29.7312 13.4525 28.6576C12.94 27.7451 13.99 26.9226 15.0025 27.1826C16.5354 27.5778 18.1402 27.6035 19.685 27.2576C20.405 27.0951 20.7175 26.2926 20.4875 25.5926C20.1634 24.5929 19.9989 23.5484 20 22.4976C20 21.0351 20.315 19.6476 20.8775 18.3951C20.9797 18.1609 21.1638 17.972 21.3953 17.8639C21.6268 17.7557 21.8898 17.7332 22.135 17.8051Z" fill="#A98261"/>
</svg>
