<svg width="22" height="16" viewBox="0 0 22 16" fill="none" xmlns="http://www.w3.org/2000/svg">
<path d="M19.0951 0H2.12167C0.954753 0 0 0.9 0 2V14C0 15.1 0.954753 16 2.12167 16H19.0951C20.262 16 21.2167 15.1 21.2167 14V2C21.2167 0.9 20.262 0 19.0951 0ZM18.6707 4.25L11.7329 8.34C11.0433 8.75 10.1734 8.75 9.48388 8.34L2.54601 4.25C2.43964 4.19371 2.34648 4.11766 2.27219 4.02645C2.1979 3.93525 2.14402 3.83078 2.1138 3.71937C2.08358 3.60796 2.07765 3.49194 2.09638 3.37831C2.11511 3.26468 2.1581 3.15581 2.22275 3.0583C2.2874 2.96079 2.37237 2.87666 2.47252 2.811C2.57266 2.74533 2.6859 2.69951 2.80538 2.6763C2.92485 2.65309 3.04808 2.65297 3.16761 2.67595C3.28714 2.69893 3.40047 2.74453 3.50076 2.81L10.6084 7L17.716 2.81C17.8163 2.74453 17.9296 2.69893 18.0491 2.67595C18.1686 2.65297 18.2919 2.65309 18.4114 2.6763C18.5308 2.69951 18.6441 2.74533 18.7442 2.811C18.8444 2.87666 18.9293 2.96079 18.994 3.0583C19.0586 3.15581 19.1016 3.26468 19.1204 3.37831C19.1391 3.49194 19.1332 3.60796 19.1029 3.71937C19.0727 3.83078 19.0188 3.93525 18.9445 4.02645C18.8702 4.11766 18.7771 4.19371 18.6707 4.25Z" fill="white"/>
</svg>
