<svg width="25" height="18" viewBox="0 0 25 18" fill="none" xmlns="http://www.w3.org/2000/svg">
<path d="M10 12.7085L16.4875 8.9585L10 5.2085V12.7085ZM24.45 2.921C24.6125 3.5085 24.725 4.296 24.8 5.296C24.8875 6.296 24.925 7.1585 24.925 7.9085L25 8.9585C25 11.696 24.8 13.7085 24.45 14.996C24.1375 16.121 23.4125 16.846 22.2875 17.1585C21.7 17.321 20.625 17.4335 18.975 17.5085C17.35 17.596 15.8625 17.6335 14.4875 17.6335L12.5 17.7085C7.2625 17.7085 4 17.5085 2.7125 17.1585C1.5875 16.846 0.8625 16.121 0.55 14.996C0.3875 14.4085 0.275 13.621 0.2 12.621C0.1125 11.621 0.0749999 10.7585 0.0749999 10.0085L0 8.9585C0 6.221 0.2 4.2085 0.55 2.921C0.8625 1.796 1.5875 1.071 2.7125 0.758496C3.3 0.595996 4.375 0.483496 6.025 0.408496C7.65 0.320996 9.1375 0.283496 10.5125 0.283496L12.5 0.208496C17.7375 0.208496 21 0.408496 22.2875 0.758496C23.4125 1.071 24.1375 1.796 24.45 2.921Z" fill="white"/>
</svg>
