<svg width="21" height="20" viewBox="0 0 21 20" fill="none" xmlns="http://www.w3.org/2000/svg">
<path d="M20.707 15.0975C20.5223 16.4207 19.8329 17.6354 18.7676 18.5145C17.7023 19.3937 16.3339 19.8772 14.918 19.8748C6.6924 19.8748 9.37415e-06 13.5662 9.37415e-06 5.8123C-0.00252874 4.47763 0.51042 3.18771 1.44305 2.18349C2.37568 1.17926 3.66422 0.529399 5.06799 0.355271C5.42297 0.314413 5.78245 0.382871 6.09276 0.550426C6.40307 0.717981 6.64758 0.975647 6.78978 1.28496L8.97775 5.88945V5.90117C9.08662 6.13794 9.13158 6.39644 9.10862 6.65359C9.08566 6.91073 8.9955 7.15851 8.84618 7.3748C8.82754 7.40117 8.80785 7.42558 8.78713 7.45L6.63024 9.86015C7.40618 11.3465 9.05545 12.8875 10.6529 13.6209L13.1745 11.5984C13.1992 11.5788 13.2252 11.5606 13.2522 11.5437C13.4814 11.3996 13.7452 11.3116 14.0196 11.2878C14.294 11.2639 14.5704 11.3049 14.8237 11.407L14.8372 11.4129L19.7177 13.4744C20.0464 13.608 20.3204 13.8383 20.4987 14.1308C20.6771 14.4234 20.7501 14.7625 20.707 15.0975Z" fill="white"/>
</svg>
