<svg width="40" height="40" viewBox="0 0 40 40" fill="none" xmlns="http://www.w3.org/2000/svg">
<path fill-rule="evenodd" clip-rule="evenodd" d="M19.1667 5C20.8051 5.00013 22.3984 5.53651 23.7033 6.52723C25.0082 7.51796 25.953 8.90856 26.3933 10.4867L26.48 10.8283L29.5967 10.05C29.8245 9.9933 30.0617 9.98536 30.2928 10.0267C30.5238 10.0681 30.7436 10.1577 30.9376 10.2899C31.1316 10.4221 31.2955 10.5938 31.4186 10.7937C31.5416 10.9936 31.6211 11.2172 31.6517 11.45L31.6667 11.6667V14.6833C32.6063 15.5842 33.3763 16.6467 33.94 17.82L34.17 18.3333H35C35.4082 18.3334 35.8022 18.4833 36.1073 18.7545C36.4123 19.0258 36.6072 19.3996 36.655 19.805L36.6667 20V25C36.6667 25.2743 36.599 25.5444 36.4697 25.7863C36.3403 26.0282 36.1532 26.2344 35.925 26.3867L35.745 26.49L33.7983 27.465C33.0014 29.0068 31.847 30.3355 30.4317 31.34L30 31.63V33.3333C29.9999 33.7416 29.8501 34.1356 29.5788 34.4406C29.3075 34.7457 28.9338 34.9406 28.5283 34.9883L28.3333 35H23.3333C22.9251 34.9999 22.5311 34.8501 22.226 34.5788C21.921 34.3075 21.7261 33.9338 21.6783 33.5283L21.6667 33.3333H20C19.9999 33.7416 19.8501 34.1356 19.5788 34.4406C19.3075 34.7457 18.9337 34.9406 18.5283 34.9883L18.3333 35H13.3333C12.9251 34.9999 12.5311 34.8501 12.226 34.5788C11.921 34.3075 11.7261 33.9338 11.6783 33.5283L11.6667 33.3333V31.63C10.4626 30.8602 9.42259 29.8601 8.60628 28.6872C7.78998 27.5142 7.21351 26.1915 6.91 24.795C5.92721 24.5025 5.05802 23.9151 4.42009 23.1123C3.78215 22.3095 3.40627 21.3301 3.34333 20.3067L3.33333 20V19.1667C3.3338 18.7419 3.49646 18.3333 3.78808 18.0244C4.07969 17.7155 4.47825 17.5296 4.90232 17.5047C5.32639 17.4798 5.74396 17.6178 6.06972 17.8904C6.39547 18.1631 6.60483 18.5498 6.655 18.9717L6.66667 19.1667V20C6.66667 20.2467 6.72 20.4817 6.81667 20.6917C7.07106 19.1912 7.63855 17.7611 8.48221 16.4944C9.32587 15.2278 10.4268 14.153 11.7133 13.34C11.5951 12.2908 11.6997 11.2285 12.0203 10.2225C12.3409 9.21651 12.8703 8.28957 13.5739 7.50231C14.2775 6.71504 15.1393 6.0852 16.1031 5.65399C17.0669 5.22278 18.1108 4.99993 19.1667 5ZM26.6667 18.3333C26.2246 18.3333 25.8007 18.5089 25.4882 18.8215C25.1756 19.134 25 19.558 25 20C25 20.442 25.1756 20.8659 25.4882 21.1785C25.8007 21.4911 26.2246 21.6667 26.6667 21.6667C27.1087 21.6667 27.5326 21.4911 27.8452 21.1785C28.1577 20.8659 28.3333 20.442 28.3333 20C28.3333 19.558 28.1577 19.134 27.8452 18.8215C27.5326 18.5089 27.1087 18.3333 26.6667 18.3333ZM19.1667 8.33333C18.1572 8.33333 17.182 8.69983 16.4223 9.36473C15.6627 10.0296 15.1703 10.9477 15.0367 11.9483C15.8443 11.7608 16.6708 11.6663 17.5 11.6667H23.1283L23.245 11.6383C23.0474 10.7033 22.5343 9.86456 21.7917 9.26284C21.0492 8.66111 20.1224 8.33293 19.1667 8.33333Z" fill="#A98261"/>
</svg>
