<svg width="40" height="40" viewBox="0 0 40 40" fill="none" xmlns="http://www.w3.org/2000/svg">
<path d="M30.6 29.78L36.14 35.32C36.5125 35.6947 36.7216 36.2016 36.7216 36.73C36.7216 37.2584 36.5125 37.7653 36.14 38.14C35.7653 38.5125 35.2584 38.7216 34.73 38.7216C34.2016 38.7216 33.6947 38.5125 33.32 38.14L28.14 32.98C26.4305 34.5622 24.2967 35.6117 22 36V18.08C22 17.5496 21.7893 17.0409 21.4142 16.6658C21.0391 16.2907 20.5304 16.08 20 16.08C19.4696 16.08 18.9609 16.2907 18.5858 16.6658C18.2107 17.0409 18 17.5496 18 18.08V36C15.7029 35.6128 13.5689 34.5631 11.86 32.98L6.68 38.14C6.30527 38.5125 5.79837 38.7216 5.27 38.7216C4.74163 38.7216 4.23472 38.5125 3.86 38.14C3.4875 37.7653 3.27841 37.2584 3.27841 36.73C3.27841 36.2016 3.4875 35.6947 3.86 35.32L9.4 29.78C8.77054 28.5998 8.34457 27.3219 8.14 26H2C1.46957 26 0.960859 25.7893 0.585786 25.4142C0.210714 25.0391 0 24.5304 0 24C0 23.4696 0.210714 22.9609 0.585786 22.5858C0.960859 22.2107 1.46957 22 2 22H8V16.82L1.86 10.68C1.4875 10.3053 1.27841 9.79837 1.27841 9.27C1.27841 8.74163 1.4875 8.23472 1.86 7.86C2.23472 7.4875 2.74163 7.27841 3.27 7.27841C3.79837 7.27841 4.30527 7.4875 4.68 7.86L8.88 12.06H31.12L35.32 7.86C35.6947 7.4875 36.2016 7.27841 36.73 7.27841C37.2584 7.27841 37.7653 7.4875 38.14 7.86C38.5125 8.23472 38.7216 8.74163 38.7216 9.27C38.7216 9.79837 38.5125 10.3053 38.14 10.68L32 16.82V22H38C38.5304 22 39.0391 22.2107 39.4142 22.5858C39.7893 22.9609 40 23.4696 40 24C40 24.5304 39.7893 25.0391 39.4142 25.4142C39.0391 25.7893 38.5304 26 38 26H31.86C31.66 27.34 31.22 28.62 30.6 29.78ZM30 10H10C10 7.34784 11.0536 4.8043 12.9289 2.92893C14.8043 1.05357 17.3478 0 20 0C22.6522 0 25.1957 1.05357 27.0711 2.92893C28.9464 4.8043 30 7.34784 30 10Z" fill="#A98261"/>
</svg>
