<svg width="26" height="25" viewBox="0 0 26 25" fill="none" xmlns="http://www.w3.org/2000/svg">
<path d="M23.1389 0C23.8756 0 24.5822 0.292658 25.1031 0.813592C25.624 1.33453 25.9167 2.04107 25.9167 2.77778V22.2222C25.9167 22.9589 25.624 23.6655 25.1031 24.1864C24.5822 24.7073 23.8756 25 23.1389 25H3.69446C2.95775 25 2.25121 24.7073 1.73028 24.1864C1.20934 23.6655 0.916687 22.9589 0.916687 22.2222V2.77778C0.916687 2.04107 1.20934 1.33453 1.73028 0.813592C2.25121 0.292658 2.95775 0 3.69446 0H23.1389ZM22.4445 21.5278V14.1667C22.4445 12.9658 21.9674 11.8142 21.1183 10.965C20.2692 10.1159 19.1175 9.63889 17.9167 9.63889C16.7361 9.63889 15.3611 10.3611 14.6945 11.4444V9.90278H10.8195V21.5278H14.6945V14.6806C14.6945 13.6111 15.5556 12.7361 16.625 12.7361C17.1407 12.7361 17.6353 12.941 18 13.3056C18.3646 13.6703 18.5695 14.1649 18.5695 14.6806V21.5278H22.4445ZM6.30558 7.72222C6.92441 7.72222 7.51791 7.47639 7.95549 7.03881C8.39308 6.60122 8.63891 6.00773 8.63891 5.38889C8.63891 4.09722 7.59724 3.04167 6.30558 3.04167C5.68305 3.04167 5.08603 3.28896 4.64584 3.72915C4.20565 4.16934 3.95835 4.76637 3.95835 5.38889C3.95835 6.68056 5.01391 7.72222 6.30558 7.72222ZM8.23613 21.5278V9.90278H4.38891V21.5278H8.23613Z" fill="white"/>
</svg>
